<svg width="137" height="162" viewBox="0 0 137 162" fill="none" xmlns="http://www.w3.org/2000/svg">
<path d="M121.895 33.3983L121.695 33.5443C121.04 34.0225 120.873 34.9167 121.296 35.6079C128.608 47.5542 132.94 61.9502 132.94 77.2615C132.94 96.6719 125.968 116.926 113.822 132.829C101.114 149.462 84.8966 158.627 68.163 158.627C51.4283 158.627 35.2118 149.462 22.4923 132.829C20.3217 129.98 18.3101 126.997 16.4856 123.902C16.0165 123.106 14.9722 122.881 14.228 123.429L14.0149 123.586C13.3748 124.057 13.1857 124.942 13.5888 125.627C15.4763 128.836 17.5579 131.927 19.8165 134.874C33.1773 152.362 50.35 162 68.164 162C85.9669 162 103.14 152.362 116.499 134.874C129.095 118.399 136.315 97.391 136.315 77.2605C136.315 61.304 131.787 46.2958 124.137 33.8264C123.662 33.0582 122.624 32.8651 121.895 33.3983ZM68.1619 3.37392C83.9633 3.37392 98.6674 10.2308 110.059 21.4269C110.604 21.9631 111.452 22.0341 112.069 21.581L112.266 21.4359C113.031 20.8728 113.126 19.7505 112.449 19.0843C100.435 7.255 84.8966 0 68.163 0C31.2077 0 0 35.3798 0 77.2605C0 87.6343 1.91557 98.2353 5.50257 108.329C5.84966 109.306 7.056 109.662 7.89123 109.048L9.02955 108.21V108.199C5.35253 98.1673 3.37295 87.5963 3.37295 77.2605C3.37295 37.2143 33.0412 3.37392 68.1619 3.37392Z" fill="#FF4D00"/>
</svg>
