<svg width="112" height="133" viewBox="0 0 112 133" fill="none" xmlns="http://www.w3.org/2000/svg">
<path d="M56.0048 0C39.5139 0 24.4097 8.5741 14.0517 21.9225C13.6255 22.4708 13.6245 23.2422 14.0357 23.8014L14.1878 24.0075C14.8011 24.8399 16.0307 24.8339 16.664 24.0155C26.3907 11.4435 40.5464 3.3746 56.0048 3.3746C84.5305 3.3746 108.625 30.8768 108.625 63.4294C108.625 94.0251 85.633 129.592 56.0048 129.592C26.3656 129.592 3.37363 94.0251 3.37363 63.4294C3.37363 55.0374 4.9764 46.9705 7.84977 39.632C8.04387 39.1368 7.97483 38.5805 7.65968 38.1523L7.47856 37.9062C6.75021 36.9157 5.22051 37.1248 4.77029 38.2684C1.70983 46.0301 0 54.5471 0 63.4294C0 79.9423 5.92781 97.1746 16.2538 110.695C27.232 125.059 41.3488 132.967 56.0059 132.967C70.6509 132.967 84.7677 125.059 95.7459 110.695C106.072 97.1746 112 79.9423 112 63.4294C112 29.0439 86.3534 0 56.0048 0Z" fill="#FF4D00"/>
</svg>
