<svg width="85" height="100" viewBox="0 0 85 100" fill="none" xmlns="http://www.w3.org/2000/svg">
<path d="M3.37551 47.4898C3.37551 28.4535 14.4588 11.747 29.519 5.52436C30.4437 5.14207 30.753 3.98824 30.1565 3.18564C29.6381 2.48812 28.7064 2.21188 27.9069 2.55214C11.8148 9.40326 0 27.2226 0 47.4887C0 63.844 7.89287 81.4852 20.2301 91.5927C20.7755 92.0391 21.5591 92.0471 22.1275 91.6308L22.4457 91.3976C23.2593 90.8021 23.3044 89.5982 22.5258 88.9588C10.9542 79.4576 3.37551 62.6441 3.37551 47.4898ZM46.5678 2.4811L46.796 2.79133C47.0342 3.11457 47.3894 3.32674 47.7857 3.39279C66.4557 6.51413 81.3378 25.4453 81.3378 47.4908C81.3378 70.2068 64.3151 96.6255 42.3627 96.6255C41.493 96.6255 40.6324 96.5855 39.7827 96.5054C39.0332 96.4354 38.3227 96.8426 38.0465 97.5422L38.0254 97.5942C37.6221 98.614 38.3006 99.7518 39.3924 99.8579C40.3702 99.952 41.3609 100 42.3627 100C66.5978 100 84.7123 72.2763 84.7123 47.4898C84.7123 23.704 68.4481 3.2907 48.0869 0.0212535C46.7039 -0.199912 45.7372 1.35226 46.5678 2.4811Z" fill="#FF4D00"/>
</svg>
