<svg width="61" height="72" viewBox="0 0 61 72" fill="none" xmlns="http://www.w3.org/2000/svg">
<path d="M56.2087 20.8282L55.9826 20.9937C55.4131 21.4117 55.2072 22.1538 55.4505 22.8171C56.7681 26.4103 57.493 30.3215 57.493 34.3811C57.493 50.2047 45.6765 68.5936 30.4547 68.5936C15.2218 68.5936 3.40538 50.2047 3.40538 34.3811C3.40538 17.5934 15.7892 3.4044 30.4547 3.4044C35.7572 3.4044 40.7638 5.26206 44.992 8.43727C45.5534 8.85928 46.3176 8.88353 46.883 8.46657L47.09 8.31412C47.935 7.69119 47.9441 6.42512 47.1061 5.79109C42.2853 2.1454 36.5436 0 30.4547 0C13.9507 0 0 15.7438 0 34.3821C0 52.135 13.0198 72 30.4547 72C47.8785 72 60.8983 52.136 60.8983 34.3821C60.8983 29.8782 60.0856 25.5501 58.6196 21.5632C58.2582 20.5758 57.0558 20.2052 56.2087 20.8282Z" fill="#FF4D00"/>
</svg>
