<svg width="27" height="27" viewBox="0 0 27 27" fill="none" xmlns="http://www.w3.org/2000/svg">
<path fill-rule="evenodd" clip-rule="evenodd" d="M0 13.5077C0 6.05637 6.05929 0 13.4998 0C20.9404 0 26.9997 6.05637 26.9997 13.5077C26.9997 20.9433 20.9404 26.9997 13.4998 26.9997C6.05929 26.9997 0 20.9433 0 13.5077ZM18.4515 14.8739C18.5948 14.7306 18.7773 14.5092 18.8164 14.4571C19.0249 14.1836 19.1291 13.845 19.1291 13.5076C19.1291 13.1286 19.0118 12.777 18.7903 12.4904C18.7722 12.4723 18.7366 12.4336 18.6903 12.3832C18.6036 12.2888 18.4792 12.1534 18.3603 12.0346C17.2918 10.8884 14.5032 9.01291 13.0438 8.43984C12.8222 8.34997 12.2619 8.1533 11.9622 8.14028C11.6755 8.14028 11.4019 8.2054 11.1413 8.33564C10.8155 8.51799 10.5549 8.80452 10.4116 9.14316C10.3203 9.3776 10.177 10.0809 10.177 10.0939C10.0337 10.8624 9.95548 12.1127 9.95548 13.4933C9.95548 14.8101 10.0337 16.007 10.1509 16.7885C10.1542 16.7917 10.1654 16.8476 10.1828 16.9344C10.2357 17.1984 10.346 17.7483 10.4637 17.9737C10.7504 18.5208 11.3107 18.8594 11.9101 18.8594H11.9622C12.3531 18.8464 13.1741 18.5077 13.1741 18.4947C14.5553 17.9216 17.2787 16.1373 18.3733 14.9521L18.4515 14.8739Z" fill="white"/>
</svg>
