<svg width="28" height="28" viewBox="0 0 28 28" fill="none" xmlns="http://www.w3.org/2000/svg">
<path d="M23.333 14.3201C23.333 14.7631 23.0038 15.1292 22.5767 15.1871L22.458 15.1951L4.95801 15.1951C4.47476 15.1951 4.08301 14.8034 4.08301 14.3201C4.08301 13.8772 4.41219 13.5111 4.83928 13.4531L4.95801 13.4451L22.458 13.4451C22.9413 13.4451 23.333 13.8369 23.333 14.3201Z" fill="#212121"/>
<path d="M12.634 20.7285C12.9764 21.0695 12.9776 21.6235 12.6367 21.9659C12.3267 22.2772 11.8406 22.3065 11.4975 22.0531L11.3992 21.9686L4.34088 14.9406C4.02864 14.6297 4.00024 14.1419 4.25568 13.7988L4.34083 13.7006L11.3992 6.67138C11.7416 6.33038 12.2956 6.33153 12.6366 6.67395C12.9466 6.98523 12.9738 7.4714 12.719 7.81342L12.634 7.91138L6.19867 14.3209L12.634 20.7285Z" fill="#212121"/>
</svg>
