<svg width="20" height="20" viewBox="0 0 20 20" fill="none" xmlns="http://www.w3.org/2000/svg">
<path d="M5.00033 15.4776C6.83866 15.4776 8.33366 13.9826 8.33366 12.1443V3.6901L15.8337 6.41677V12.6084C15.3294 12.308 14.754 12.1477 14.167 12.1443C12.3287 12.1443 10.8337 13.6393 10.8337 15.4776C10.8337 17.3159 12.3287 18.8109 14.167 18.8109C16.0053 18.8109 17.5003 17.3159 17.5003 15.4776V5.83343C17.5004 5.66246 17.4479 5.4956 17.3497 5.35558C17.2516 5.21556 17.1127 5.10918 16.952 5.05093L7.78533 1.7176C7.65949 1.6716 7.5244 1.65665 7.39155 1.67402C7.2587 1.69139 7.132 1.74057 7.02222 1.81739C6.91244 1.8942 6.82282 1.99637 6.76098 2.11523C6.69914 2.23409 6.66689 2.36612 6.66699 2.5001V9.2751C6.16271 8.97465 5.58731 8.8144 5.00033 8.81093C3.16199 8.81093 1.66699 10.3059 1.66699 12.1443C1.66699 13.9826 3.16199 15.4776 5.00033 15.4776Z" fill="white"/>
</svg>
