<svg width="33" height="38" viewBox="0 0 33 38" fill="none" xmlns="http://www.w3.org/2000/svg">
<path d="M16.208 0C14.1545 0 12.1661 0.455445 10.3302 1.28611C9.44338 1.6874 9.17652 2.82706 9.75036 3.61258L9.90785 3.82729C10.3392 4.41718 11.1197 4.62184 11.7889 4.32789C13.1763 3.71894 14.6641 3.38385 16.2071 3.38385C23.1554 3.38385 29.0202 10.1626 29.0202 18.1824C29.0202 25.7848 23.4262 34.6161 16.2071 34.6161C8.98789 34.6161 3.38287 25.7848 3.38287 18.1824V18.0359L2.81409 17.2604C1.93627 16.0646 0.00300966 16.6565 0 18.1392C0 18.1533 0 18.1673 0 18.1824C0 27.5434 6.93628 38 16.208 38C25.4798 38 32.4051 27.5444 32.4051 18.1824C32.4051 8.32472 24.9832 0 16.208 0Z" fill="#FF4D00"/>
</svg>
