<svg width="24" height="24" viewBox="0 0 24 24" fill="none" xmlns="http://www.w3.org/2000/svg">
<path d="M11.6894 22.7645C11.1656 22.6367 10.6419 22.3813 10.38 21.998C9.85627 21.4871 9.59439 20.7207 9.72533 19.9542C9.72533 19.8265 9.72533 19.6987 9.46345 19.6987C7.76126 19.6987 6.05907 19.6987 4.35688 19.6987C3.0475 19.6987 2 18.6768 2 17.2717C2 16.1221 3.0475 15.2279 4.22594 15.1002C4.74969 15.1002 4.88063 14.8447 4.88063 14.3337C4.88063 13.0564 4.88063 11.779 4.88063 10.5016C4.88063 8.45777 5.66626 6.79718 7.10657 5.39205C7.8922 4.8811 8.67783 4.37015 9.72533 4.11467C9.85627 3.98693 9.85627 3.98693 9.85627 3.85919C9.59439 2.58181 10.38 1.30443 11.5585 1.04895C12.7369 0.793473 14.0463 1.5599 14.3081 2.83729C14.4391 3.2205 14.4391 3.47598 14.3081 3.85919C14.3081 3.98693 14.3081 4.11467 14.4391 4.11467C16.1413 4.75336 17.4507 5.77527 18.3672 7.43587C18.891 8.33004 19.1528 9.2242 19.1528 10.2461C19.2838 11.6512 19.1528 13.1841 19.1528 14.5892C19.1528 15.1002 19.2838 15.2279 19.8075 15.3556C20.7241 15.3556 21.3788 15.8666 21.7716 16.633C22.1644 17.3995 22.0335 18.2936 21.5097 18.9323C21.1169 19.571 20.4622 19.8265 19.6766 19.8265C17.9744 19.8265 16.2722 19.8265 14.57 19.8265C14.4391 19.8265 14.3081 19.8265 14.3081 20.082C14.57 21.3593 13.6535 22.509 12.475 22.7645H12.3441C12.2131 22.7645 11.9513 22.7645 11.6894 22.7645ZM12.0822 18.4214C14.57 18.4214 16.9269 18.4214 19.4147 18.4214C19.5457 18.4214 19.6766 18.4214 19.8075 18.4214C20.2003 18.4214 20.5932 18.2936 20.7241 17.7827C20.986 17.144 20.5932 16.5053 19.8075 16.5053C18.76 16.3776 17.9744 15.6111 17.9744 14.5892C17.9744 13.3118 17.9744 12.0344 17.9744 10.7571C17.9744 9.73516 17.7125 8.71325 17.1888 7.81908C15.7485 5.13658 12.0822 4.11467 9.33251 5.64753C7.23751 6.79717 6.32095 8.58551 6.19001 10.7571C6.19001 12.0344 6.19001 13.3118 6.19001 14.717C6.19001 15.6111 5.53532 16.2498 4.74969 16.5053C4.48782 16.5053 4.35688 16.5053 4.095 16.633C3.70219 16.633 3.30938 17.0162 3.30938 17.5272C3.30938 18.0381 3.70219 18.4214 4.095 18.4214C4.22594 18.4214 4.35688 18.4214 4.48782 18.4214C7.10657 18.4214 9.59439 18.4214 12.0822 18.4214ZM12.0822 19.8265C11.8203 19.8265 11.5585 19.8265 11.2966 19.8265C11.1656 19.8265 11.1656 19.8265 11.0347 19.9542C10.7728 20.3374 10.9038 20.9761 11.2966 21.2316C11.6894 21.6148 12.3441 21.6148 12.7369 21.2316C13.1297 20.9761 13.2606 20.3374 13.1297 19.9542C13.1297 19.8265 12.9988 19.8265 12.8678 19.8265C12.606 19.8265 12.3441 19.8265 12.0822 19.8265ZM12.0822 2.32633C11.4275 2.32633 11.0347 2.96502 11.1656 3.47598C11.1656 3.60372 11.2966 3.73145 11.4275 3.73145C11.8203 3.73145 12.2131 3.73145 12.7369 3.73145C12.8678 3.73145 12.9988 3.73145 12.9988 3.47598C13.1297 2.96502 12.7369 2.32633 12.0822 2.32633Z" fill="#818283"/>
<circle cx="18" cy="8" r="4" fill="#1CA722"/>
</svg>
