<svg width="20" height="20" viewBox="0 0 20 20" fill="none" xmlns="http://www.w3.org/2000/svg">
<path d="M16.8219 1C17 1.17347 17 1.34694 17 1.52041C17 6.89796 17 12.2755 17 17.6531C17 17.8265 17 18 16.8219 18.1735C16.6438 18.1735 16.4658 18.1735 16.2877 18C15.0411 16.6122 13.6164 15.2245 12.1918 14.0102C11.6575 13.4898 11.1233 12.9694 10.589 12.6224C10.411 12.449 10.411 12.449 10.411 12.6224C9.34247 13.4898 8.45205 14.5306 7.38356 15.398C6.49315 16.2653 5.60274 17.1327 4.71233 18C4.53425 18 4.35616 18.1735 4.17808 18C4 18 4 17.8265 4 17.6531C4 12.2755 4 6.89796 4 1.52041C4 1.34694 4 1.17347 4.17808 1C8.45205 1 12.726 1 16.8219 1ZM4.71233 16.7857C4.89041 16.7857 4.89041 16.7857 4.71233 16.7857C5.60274 16.0918 6.31507 15.398 7.0274 14.7041C8.09589 13.6633 9.16438 12.6224 10.2329 11.7551C10.411 11.5816 10.589 11.5816 10.9452 11.7551C11.1233 11.9286 11.3014 12.102 11.4795 12.2755C12.9041 13.6633 14.5068 15.051 15.9315 16.4388C15.9315 16.6122 16.1096 16.6122 16.2877 16.7857C16.2877 16.6122 16.2877 16.6122 16.2877 16.6122C16.2877 11.7551 16.2877 6.89796 16.2877 2.04082C16.2877 1.86735 16.2877 1.86735 16.1096 1.86735C12.3699 1.86735 8.80822 1.86735 5.06849 1.86735C4.89041 1.86735 4.89041 1.86735 4.89041 2.04082C4.89041 6.89796 4.89041 11.7551 4.89041 16.6122C4.71233 16.6122 4.71233 16.7857 4.71233 16.7857Z" fill="black"/>
</svg>
